<?xml version="1.0" encoding="UTF-8"?>
<svg id="Capa_1" data-name="Capa 1" xmlns="http://www.w3.org/2000/svg" viewBox="0 0 368.5 368.5">
  <defs>
    <style>
      .cls-1 {
        fill: #fff;
      }
    </style>
  </defs>
  <path class="cls-1" d="M9.89,181.18c1.03-.42,.87-1.51,1.21-2.28,3.06-7.1,8.53-10.66,16.14-11.12,1.46-.09,2.94-.01,4.3-.01,.47-1.03-.21-1.47-.55-2.02-5.13-8.28-3.25-18.44,4.45-23.92,7.65-5.45,17.95-3.91,24.05,3.74,5.8,7.28,11.45,14.68,17.18,22.05h64.36c-15-15-30.14-30.13-46.01-46.01-6.28,.76-13.81,1.73-21.35,2.57-3.48,.39-6.93,1.29-10.5,.67-8.66-1.5-14.82-8.38-15.01-16.86-.19-8.61,5.8-15.88,14.52-17.61,.41-.08,.82-.15,2.07-.38-6.19-5.27-9.88-11.11-8.49-19,.69-3.95,2.52-7.28,5.54-9.9,7.6-6.61,16.02-5.51,27.26,3.52,1.11-.63,.62-1.82,.87-2.71,2.49-8.92,11.27-14.44,20.2-12.63,9.3,1.88,15.23,10.16,14.05,19.51-1.17,9.24-2.27,18.49-3.32,27.17,15.57,15.55,30.81,30.77,46.03,45.97V77.31c-7.38-5.77-14.95-11.57-22.39-17.53-5.58-4.47-7.56-10.52-6.09-17.37,1.42-6.59,5.63-11.04,12.2-12.96,4.81-1.41,9.43-.74,13.8,1.72,.76,.43,1.28,1.32,2.67,1.16-.35-6.75,.75-13.1,6.37-17.71,3.37-2.77,7.26-4.14,11.64-4.05,10.31,.23,15.34,6.55,17.36,22.01,3.18-1.83,6.29-3.59,10.04-3.77,7.86-.37,14.73,3.84,17.55,10.95,2.81,7.09,.82,15.07-5.28,20-6.54,5.28-13.24,10.37-19.87,15.54-.89,.69-1.76,1.4-2.56,2.04v64.55c15.1-15.14,30.23-30.3,45.97-46.07-.94-7.86-2-16.76-3.07-25.66-1.35-11.17,4.45-19.49,14.77-21.16,9.3-1.51,17.73,5.08,19.88,15.97,9.16-9.24,18.92-11.98,29.09-2.2,3.91,3.75,4.76,8.87,4.03,14.24-.73,5.38-4.28,9.05-8.25,12.93,8.33,1.55,13.79,5.73,15.75,13.62,2.93,11.84-7.03,22.86-19.13,21.33-9.35-1.18-18.71-2.31-27.78-3.42-15.4,15.44-30.56,30.65-45.83,45.96h64.94c5.35-6.87,10.84-13.97,16.38-21.02,6.56-8.35,16.72-10.23,24.67-4.62,8.02,5.66,9.62,15.72,3.94,24.75-.11,.18-.13,.41-.37,1.2,5.66-.16,11.16,.19,15.61,4.03,4.51,3.89,6.75,8.81,6.33,14.76-.38,5.4-2.91,9.71-7.24,12.96-4.32,3.24-9.42,3.37-15.05,3.38,3.73,5.06,5.05,10.26,3.63,15.81-1.75,6.86-6.29,11.35-13.2,12.81-6.85,1.44-12.89-.56-17.35-6.15-5.88-7.37-11.62-14.85-17.5-22.38h-64.01c14.83,14.85,30.02,30.06,45.92,45.98,7.83-.95,16.96-1.98,26.08-3.18,10.11-1.33,18.69,4.76,20.38,14.63,1.56,9.13-4.91,17.93-14.57,19.82-.31,.06-.62,.16-1.53,.41,5.9,5.37,9.79,11.39,8.08,19.51-.83,3.9-2.77,7.18-5.9,9.7-7.74,6.23-16.25,5-26.69-3.86-1.02,.15-.68,1.01-.81,1.59-1.93,9.21-10.68,15.48-19.6,14.03-9.75-1.59-16.11-10.18-14.85-19.91,1.19-9.23,2.26-18.48,3.35-27.42-15.43-15.41-30.62-30.58-45.95-45.89v64.98c7.34,5.73,14.92,11.52,22.35,17.5,5.58,4.49,7.5,10.56,5.99,17.4-1.48,6.74-5.87,11.22-12.6,12.99-5.57,1.46-10.78,.27-16.06-3.72,0,2.01,.05,3.39,0,4.77-.33,8.73-5.06,14.74-13.4,17.11-.27,.08-.47,.4-.7,.6h-7.51c-.23-.87-1.07-.71-1.65-.95-7.69-3.11-11.52-8.85-11.77-17.08-.04-1.28,0-2.56,0-4.36-1.38,.89-2.1,1.4-2.86,1.83-10.02,5.74-22.67,.65-25.6-10.53-1.94-7.39,.25-13.73,6.28-18.51,7.37-5.85,14.83-11.57,21.89-17.06v-64.95c-15.32,15.27-30.52,30.42-45.81,45.66,0,.29-.05,.74,0,1.19,1.05,8.8,2.06,17.6,3.2,26.39,1.27,9.73-5.04,18.31-14.82,19.95-8.89,1.49-17.71-4.79-19.64-13.97-.12-.59,.2-1.43-.75-1.66-10.92,9.02-19.58,10.14-27.21,3.48-3.01-2.63-4.83-5.96-5.52-9.91-1.38-7.88,2.32-13.72,8.1-18.66-.7-.39-.86-.54-1.06-.58-10.05-1.99-16.53-10.56-14.99-19.8,1.68-10,10.1-15.93,20.66-14.62,9.01,1.12,18.03,2.16,25.95,3.11,15.81-15.79,31.02-30.99,46.07-46.03H76.69c-5.91,7.56-11.68,15.16-17.68,22.57-4.92,6.09-12.95,8.03-20.01,5.17-7.25-2.93-11.39-9.92-10.85-17.93,.25-3.62,2.08-6.57,3.8-9.8-.99-.06-1.66-.11-2.33-.13-.68-.02-1.37,.02-2.05-.01-7.74-.38-13.35-3.9-16.48-11.14-.33-.77-.18-1.86-1.21-2.28v-8.19ZM178.74,115.8c0,13.19-.03,26.39,.02,39.58,.01,3.03-.42,5.8-3.55,7.08-3.06,1.25-5.38-.14-7.57-2.34-18.62-18.69-37.28-37.36-56-55.95-2.33-2.32-3.11-4.78-2.67-7.97,1.28-9.46,2.42-18.93,3.61-28.4,.48-3.86-1.51-6.8-4.94-7.29-3.18-.46-5.92,1.71-6.54,5.46-.6,3.7-.98,7.43-1.4,11.16-.33,2.88-1.22,5.41-4.29,6.32-2.86,.85-4.99-.48-6.94-2.51-3.31-3.45-6.72-6.79-10.13-10.14-3-2.94-6.55-3.21-9.04-.75-2.5,2.47-2.21,5.92,.82,9,3.59,3.65,7.21,7.26,10.86,10.85,1.9,1.87,2.56,4.08,1.68,6.53-.84,2.33-2.72,3.49-5.21,3.78-4.18,.48-8.36,.96-12.5,1.66-3.47,.59-5.58,3.44-5.12,6.48,.49,3.28,3.4,5.4,6.99,4.96,9.47-1.17,18.95-2.32,28.4-3.62,3.3-.46,5.86,.25,8.28,2.7,18.51,18.64,37.1,37.21,55.72,55.74,2.26,2.25,3.87,4.6,2.51,7.82-1.31,3.13-4.1,3.5-7.11,3.5-26.27-.03-52.55-.06-78.82,.03-3.4,.01-5.75-1.18-7.79-3.88-5.75-7.62-11.65-15.13-17.57-22.62-2.32-2.93-5.82-3.47-8.41-1.53-2.72,2.04-3.06,5.63-.71,8.77,2.24,3,4.55,5.96,6.91,8.88,1.69,2.08,2.59,4.26,1.43,6.89-1.25,2.82-3.64,3.49-6.44,3.46-4.66-.04-9.33-.03-13.99,0-4.97,.02-7.65,2.04-7.72,5.75-.07,3.79,2.74,5.92,7.87,5.94,4.89,.02,9.78,0,14.67,.02,2.46,.01,4.43,.93,5.53,3.26,1.09,2.29,.71,4.41-.81,6.37-2.3,2.96-4.61,5.91-6.91,8.88-2.8,3.62-2.8,7.08,0,9.33,2.78,2.25,6.31,1.5,9.08-2.02,5.76-7.34,11.56-14.64,17.16-22.1,2.06-2.74,4.47-3.78,7.84-3.77,26.27,.08,52.55,.06,78.82,.02,3.04,0,5.79,.47,7.03,3.62,1.21,3.07-.23,5.38-2.42,7.55-18.7,18.62-37.36,37.27-55.96,55.99-2.33,2.34-4.81,3.07-7.98,2.64-9.35-1.25-18.71-2.37-28.07-3.55-4.13-.52-7.12,1.44-7.57,4.96-.41,3.26,1.9,5.93,5.91,6.56,3.82,.6,7.66,1.04,11.5,1.45,2.62,.28,4.62,1.41,5.48,3.91,.9,2.64-.06,4.85-2.02,6.76-3.5,3.41-6.95,6.88-10.39,10.36-3.09,3.13-3.49,6.48-1.12,9,2.47,2.63,6.16,2.38,9.29-.69,3.65-3.59,7.27-7.21,10.86-10.85,1.77-1.8,3.89-2.42,6.23-1.67,2.36,.76,3.65,2.54,3.94,5.06,.48,4.06,.94,8.13,1.58,12.17,.63,3.94,3.46,6.2,6.72,5.65,3.39-.58,5.26-3.49,4.76-7.42-1.19-9.47-2.35-18.94-3.59-28.41-.38-2.89,.17-5.26,2.35-7.42,18.95-18.85,37.84-37.76,56.7-56.7,2.04-2.05,4.29-3.1,7.04-2.06,2.97,1.12,3.72,3.65,3.71,6.63-.03,26.62-.04,53.23,.01,79.85,0,2.98-1.01,5.15-3.41,6.98-7.69,5.85-15.29,11.81-22.88,17.79-3.12,2.46-3.72,5.98-1.65,8.63,2.1,2.69,5.59,2.97,8.78,.59,2.55-1.9,5.03-3.9,7.52-5.88,2.43-1.93,4.79-3.99,8.25-2.37,3.48,1.63,3.39,4.74,3.37,7.87-.03,4.44,0,8.87,0,13.31,0,1.61,.14,3.21,1.18,4.53,1.54,1.95,3.58,2.87,6.02,2.22,2.87-.76,4.39-2.81,4.45-5.74,.1-4.89,.08-9.78,.04-14.67-.02-3.05,.06-5.99,3.37-7.53,3.28-1.53,5.63,.25,7.99,2.15,2.48,2,5,3.93,7.52,5.88,.99,.76,1.96,1.56,3.26,1.74,2.91,.42,5.25-.5,6.45-3.26,1.23-2.85,.43-5.33-2.02-7.24-7.71-6.01-15.37-12.08-23.15-18-2.39-1.82-3.44-3.97-3.43-6.96,.05-26.61,.04-53.23,.01-79.85,0-2.97,.71-5.51,3.69-6.64,2.92-1.11,5.18,.16,7.29,2.27,18.7,18.78,37.43,37.52,56.22,56.21,2.23,2.22,3.02,4.6,2.62,7.66-1.26,9.46-2.4,18.94-3.59,28.41-.5,3.95,1.34,6.86,4.72,7.44,3.26,.56,6.11-1.71,6.75-5.63,.63-3.92,1.09-7.88,1.52-11.83,.29-2.63,1.47-4.59,3.99-5.41,2.49-.81,4.64,0,6.48,1.88,3.58,3.66,7.19,7.28,10.86,10.85,2.86,2.78,6.39,3.01,8.8,.72,2.54-2.42,2.34-5.95-.64-9-3.57-3.67-7.19-7.29-10.85-10.86-1.9-1.85-2.65-4.02-1.81-6.5,.79-2.35,2.62-3.58,5.13-3.87,4.17-.49,8.36-.96,12.5-1.66,3.65-.61,5.81-3.58,5.21-6.72-.62-3.27-3.48-5.17-7.17-4.71-9.47,1.18-18.95,2.33-28.4,3.61-3.18,.43-5.66-.29-7.98-2.63-18.6-18.72-37.27-37.36-55.97-55.98-2.19-2.18-3.64-4.47-2.43-7.55,1.24-3.15,3.98-3.63,7.03-3.62,26.27,.04,52.55,.06,78.82-.02,3.36-.01,5.78,1.03,7.84,3.76,5.67,7.54,11.53,14.94,17.36,22.35,2.61,3.31,6.14,3.96,8.86,1.78,2.73-2.18,2.84-5.68,.25-9.07-2.21-2.89-4.43-5.77-6.72-8.6-1.71-2.11-2.46-4.31-1.23-6.91,1.26-2.64,3.53-3.3,6.21-3.28,4.78,.03,9.55,.03,14.33,0,4.84-.03,7.6-2.24,7.53-5.95-.07-3.62-2.71-5.71-7.38-5.74-5-.04-10.01,0-15.01-.02-2.59,0-4.66-.94-5.77-3.44-1.03-2.32-.52-4.42,1-6.35,2.32-2.95,4.63-5.9,6.93-8.86,.76-.98,1.61-1.95,1.84-3.22,.52-2.87-.26-5.27-2.99-6.58-2.8-1.34-5.35-.74-7.29,1.73-5.97,7.6-11.97,15.17-17.8,22.88-2.03,2.69-4.37,3.92-7.78,3.91-26.39-.09-52.78-.06-79.16-.03-2.92,0-5.54-.51-6.79-3.47-1.29-3.04,.03-5.38,2.24-7.58,18.7-18.62,37.37-37.27,55.97-55.99,2.3-2.32,4.72-3.21,7.93-2.78,9.35,1.26,18.71,2.37,28.07,3.55,4.22,.53,7.16-1.28,7.71-4.78,.52-3.35-1.88-6.11-6.07-6.75-3.82-.58-7.66-1.02-11.5-1.44-2.64-.29-4.56-1.53-5.35-4.06-.78-2.51,.09-4.63,1.97-6.46,3.59-3.49,7.11-7.04,10.62-10.61,3.04-3.1,3.33-6.52,.87-9-2.45-2.47-6.02-2.23-9.04,.72-3.66,3.58-7.27,7.2-10.86,10.86-1.86,1.9-4.07,2.59-6.52,1.73-2.33-.81-3.53-2.67-3.81-5.18-.48-4.18-.96-8.36-1.66-12.5-.59-3.49-3.41-5.6-6.45-5.18-3.29,.46-5.45,3.38-5.01,6.95,1.17,9.47,2.33,18.95,3.63,28.4,.45,3.29-.21,5.87-2.66,8.3-18.72,18.59-37.37,37.27-55.99,55.96-2.19,2.2-4.51,3.57-7.57,2.32-2.97-1.21-3.54-3.81-3.53-6.74,.03-26.5,.05-53-.02-79.5,0-3.12,1.07-5.34,3.57-7.24,7.61-5.77,15.11-11.67,22.61-17.58,3.27-2.58,3.87-6.2,1.64-8.87-2.17-2.6-5.61-2.75-8.81-.32-2.98,2.27-5.94,4.58-8.87,6.92-2.12,1.7-4.36,2.4-6.93,1.12-2.46-1.22-3.19-3.37-3.18-5.93,.01-5,.04-10.01-.01-15.01-.05-4.4-2.19-6.99-5.7-7.08-3.62-.1-5.93,2.61-5.98,7.14-.05,4.78-.04,9.55,0,14.33,.02,2.77-.46,5.23-3.24,6.59-2.73,1.33-5.01,.41-7.19-1.37-2.73-2.23-5.52-4.38-8.32-6.52-3.44-2.63-6.85-2.56-9.07,.14-2.3,2.8-1.6,6.29,1.94,9.07,7.33,5.76,14.63,11.55,22.08,17.15,2.72,2.05,3.86,4.43,3.83,7.81-.11,13.08-.05,26.16-.05,39.24Z"/>
</svg>