<?xml version="1.0" encoding="UTF-8"?>
<svg id="Capa_1" data-name="Capa 1" xmlns="http://www.w3.org/2000/svg" viewBox="0 0 368.5 368.5">
  <defs>
    <style>
      .cls-1 {
        fill: #fff;
      }
    </style>
  </defs>
  <path class="cls-1" d="M285.51,365.96c-10.53-3.62-19.9-9.71-30.37-14.27-3.12,3.35-6.85,6.16-11.24,7.92-9.06,3.62-17.79,2.76-26.49-1.61-52.26-26.24-104.57-52.37-156.87-78.54-5.35-2.67-10.59-5.57-16.06-7.97-14.62-6.41-22.37-18.61-19.92-35.3-8.81-5.04-10.81-13.56-10.96-23.03-.06-3.52-.58-7.03-.81-10.55-1.24-19.6-2.22-39.23-.81-58.85,1.64-22.78,6.01-44.88,17.57-65.15-5.2-7.06-10.34-14.05-15.49-21.04-5.81-7.88-5.11-10.72,3.55-15.62,7.46-4.21,15.08-8.1,22.78-11.82,3.84-1.85,7.29-.98,9.39,2.05,1.9,2.74,1.73,6.43-.61,8.69-1.07,1.04-2.44,1.82-3.79,2.52-5.72,2.98-11.48,5.88-17.56,8.98,4.5,6.12,8.67,12.36,13.44,18.1,4.14,4.98,4.52,9.37,.93,14.9-6.06,9.33-9.57,19.84-11.91,30.65-1.26,5.83,.25,11.7,1.62,17.4,3.98,16.55,11.89,31.29,21.44,45.2,22.71,33.05,51.29,60.54,82.06,85.91,23.44,19.33,48.28,36.4,75.93,49.4,23.53,11.07,46.71,22.93,69.75,35,6.53,3.42,11.98,2.83,17.81-.47,12.13-6.87,22.18-16.18,30.96-26.89,2.98-3.63,3.34-8.42,5.26-12.94-5.89-2.34-11.61-4.62-17.34-6.88-32.26-12.77-64.41-25.77-95.01-42.29-29.48-15.91-55.06-36.31-74.3-64.05-12.37-17.84-17.08-37.26-10.43-58.4,6.2-19.68,23.84-30.57,44.12-28.12,12.46,1.51,24.03,6.22,35.91,9.77,23.02,6.88,45.95,14.08,68.91,21.14,.77,.24,1.55,.41,2.77,.73-1.74-6.41-4.5-12.02-7.55-17.46-10.94-19.46-26-35.34-43.52-48.93-35.37-27.45-75.72-43.77-119.29-52.64-5.07-1.03-10.17,1.11-15.22,1.93-3.35,.55-6.63,1.52-9.95,2.27-6.07,1.37-10.03-.4-11.04-4.9-.96-4.31,1.89-7.52,7.76-8.95,17.88-4.34,36.03-6.68,54.4-7.08,33.23-.73,65.55,4.01,96.44,16.8,36.32,15.04,65.74,38.5,86.34,72.2,10.66,17.44,16.94,36.75,21.62,56.6,8.76,37.18,10.81,74.8,7.7,112.77-1.64,19.95-5.05,39.55-11.8,58.5-1.59,4.45-4.15,8.14-7.16,11.59-9.4,10.78-19.9,20.25-32.41,27.4-4.07,2.32-8.56,3.41-12.76,5.3h-7.76Zm-175.14-102.87c.42,.49,.85,.98,1.65,.27-.36-.3-.69-.57-1.02-.84-10.47-9.45-20.86-18.97-30.63-29.14-21.15-22.01-40.46-45.38-53.76-73.16-.2-.42-.27-.92-1.15-.79,0,.36,0,.78,0,1.19-.25,19.06,1.33,38.03,2.59,57.02,.22,3.38,1.88,5.55,4.93,7.05,13.13,6.46,26.19,13.08,39.3,19.6,12.68,6.3,25.39,12.54,38.09,18.8Zm100.32-27.23c40.15,25.29,84.18,41.56,128.08,59,7.77-41.71,7.69-82.89,.86-124.07-38.15-11.73-75.98-23.36-114.19-35.1-4.93,33.46-9.81,66.64-14.75,100.17Zm1.08-104.4c-8.28-2.5-16.1-4.93-23.96-7.21-2.35-.68-4.81-1.01-7.24-1.38-12.61-1.91-24.31,5.13-28.61,17.2-5.15,14.46-2.95,28.28,4.39,41.3,6.03,10.7,14.19,19.84,22.71,28.63,5.71,5.89,11.81,11.32,18.74,16.49,4.68-31.82,9.3-63.23,13.98-95.04Zm124.62,23.56c-1.31-4.97-2.45-9.38-3.63-13.78-.43-1.58-.99-3.13-1.46-4.7-11.09-37.1-33.26-65.83-65.71-86.7-23.33-15-48.98-23.86-76.26-28.2-7.09-1.13-14.22-2.08-21.47-2.21,.05,.45,.03,.65,.08,.67,1.08,.44,2.17,.89,3.27,1.29,27.3,9.91,52.71,23.33,75.65,41.22,16.5,12.86,31.13,27.51,42.63,45.13,7.62,11.68,13.31,24.19,16.51,37.93,10.01,3.08,19.94,6.13,30.41,9.35Zm-94.75,189.76c-68.02-34.01-135.46-67.74-203.34-101.69,.39,7.49,4.28,11.64,10.15,14.57,32.72,16.31,65.41,32.68,98.1,49.04,25.68,12.84,51.36,25.67,77.02,38.54,5.91,2.97,11.7,3.71,18.05-.46Z"/>
  <path class="cls-1" d="M289.31,342.07c-.99,.06-2.1-.28-3.16-.81-8.37-4.19-16.75-8.37-25.11-12.59-2.86-1.44-4.58-3.79-4.32-7.04,.23-2.88,1.87-4.98,4.64-6.07,2.14-.84,4.19-.36,6.11,.59,8.29,4.1,16.57,8.2,24.79,12.44,3.67,1.9,4.95,4.94,3.97,8.4-.92,3.24-3.37,5.1-6.91,5.09Z"/>
  <path class="cls-1" d="M93.2,61.98c-.17,3.37-1.58,5.6-4.32,6.69-2.69,1.07-5.52,.87-7.45-1.43-4.22-5.02-8.22-10.24-11.64-15.83-1.89-3.08-.87-6.67,1.9-8.76,2.6-1.96,6.45-2.07,8.69,.36,4.6,4.99,8.51,10.56,12.09,16.33,.52,.84,.55,2,.71,2.65Z"/>
  <path class="cls-1" d="M60.73,78.65c-2.36-.15-4.36-1.23-5.84-3.23-3.2-4.34-6.47-8.64-9.56-13.05-2.83-4.03-2.28-8.09,1.19-10.53,3.31-2.32,7.22-1.58,10.13,2.18,3.3,4.27,6.45,8.64,9.59,13.03,1.77,2.47,2.17,5.18,.66,7.94-1.29,2.35-3.42,3.45-6.17,3.67Z"/>
  <path class="cls-1" d="M252.45,312.95c.06,3.91-2.86,7.02-6.71,7.14-3.8,.12-7.3-3.18-7.4-6.97-.09-3.67,3.1-7.01,6.81-7.12,3.95-.12,7.24,3.02,7.29,6.95Z"/>
  <path class="cls-1" d="M69.03,28.34c-.02,3.9-3.27,7.02-7.26,6.94-3.77-.07-6.88-3.25-6.87-7.02,0-3.74,3.46-7.02,7.33-6.95,3.75,.06,6.81,3.23,6.8,7.03Z"/>
</svg>