<?xml version="1.0" encoding="UTF-8"?>
<svg id="Capa_1" data-name="Capa 1" xmlns="http://www.w3.org/2000/svg" viewBox="0 0 368.5 368.5">
  <defs>
    <style>
      .cls-1 {
        fill: #fff;
      }
    </style>
  </defs>
  <path class="cls-1" d="M6.65,306.91c8.78-34.98,17.56-69.95,26.35-104.93,5.86-23.32,11.68-46.64,17.64-69.94,5.06-19.78,21.07-32.24,41.51-32.37,15.41-.1,30.83-.02,46.24-.02,1.12,0,2.25,0,3.96,0-9.87-14.45-12.87-29.73-8.09-46.16,3.42-11.75,10.39-21.12,20.45-28.07,20.27-14,47.24-11.87,65.25,5,16.94,15.87,23.45,43.96,6.56,68.71,.93,1.03,2.16,.49,3.21,.49,15.3,.04,30.6,.01,45.9,.03,21.92,.03,37.67,12.31,42.99,33.6,14.21,56.98,28.5,113.93,42.5,170.96,6.31,25.71-13.2,50.62-39.68,51.33-1.27,.03-2.55,.03-3.82,.03-88.9,0-177.79,0-266.69,0-23.2,0-38.65-12.15-44.22-34.75,.11-.77,.03-1.49-.53-2.09,0-2.78,0-5.56,0-8.35,.16-1.16,.31-2.32,.47-3.48Zm177.5,27.8c44.85,0,89.7,.02,134.55,0,15.92,0,25.58-12.29,21.77-27.6-14.07-56.53-28.14-113.06-42.21-169.59-2.66-10.66-10.59-16.97-21.6-16.97-61.42-.03-122.85-.03-184.27,0-11.08,0-18.86,6.13-21.59,16.93-14.29,56.59-28.55,113.19-42.82,169.78-.8,3.16-1.27,6.35-.67,9.62,2.02,10.96,10.51,17.82,22.28,17.83,44.85,.02,89.7,0,134.55,0Zm.17-235.05c17.26-.03,31.29-14.14,31.22-31.43-.07-17.08-14.11-31.09-31.19-31.14-17.23-.05-31.38,14.06-31.39,31.29,0,17.26,14.08,31.31,31.36,31.28Z"/>
  <path class="cls-1" d="M246.68,238.05c-3.99,0-7.7,.05-11.41-.01-6.22-.1-10.72-4.48-10.75-10.37-.03-5.89,4.47-10.41,10.63-10.47,7.77-.08,15.53-.08,23.3,0,5.8,.06,10.5,4.21,10.54,9.85,.09,15.29-3.97,29.14-15.61,39.8-16.09,14.73-42.55,14.44-60.61-.45-16.99-14.01-22.95-36.81-14.93-57.13,8-20.27,28.02-33.02,49.88-31.63,8.46,.54,16.32,3.13,23.5,7.68,5.68,3.59,7.37,9.71,4.16,14.91-3.18,5.15-9.37,6.3-15.19,2.83-17.02-10.16-37.85-2.56-43.66,15.94-6.57,20.89,12.05,41.7,33.3,37.2,8.47-1.79,14.53-8.24,16.86-18.15Z"/>
  <path class="cls-1" d="M127.66,226.02c11.51,11.12,22.75,21.99,34.01,32.84,1.88,1.81,3.41,3.76,3.85,6.42,.77,4.72-1.24,9-5.26,11.13-4.09,2.17-8.63,1.66-12.17-1.71-8.15-7.74-16.19-15.59-24.29-23.39-.98-.94-1.99-1.84-3.51-3.25,0,6.33,.01,12.05,0,17.78-.02,7.1-4.14,11.81-10.34,11.85-6.18,.04-10.52-4.74-10.52-11.7-.02-25.61-.02-51.22,0-76.83,0-6.91,4.42-11.71,10.61-11.61,6.08,.09,10.22,4.76,10.25,11.58,.02,4.75,.02,9.5,.04,14.25,0,.08,.12,.16,.37,.5,1-.85,2.03-1.68,3-2.57,7-6.43,13.97-12.88,20.98-19.29,4.95-4.53,11.4-4.57,15.49-.14,4.06,4.4,3.56,10.92-1.32,15.44-10.29,9.52-20.62,18.99-31.19,28.71Z"/>
</svg>