<?xml version="1.0" standalone="no"?>
<!DOCTYPE svg PUBLIC "-//W3C//DTD SVG 20010904//EN"
 "http://www.w3.org/TR/2001/REC-SVG-20010904/DTD/svg10.dtd">
<svg version="1.0" xmlns="http://www.w3.org/2000/svg"
 width="920.000000pt" height="500.000000pt" viewBox="0 0 920.000000 500.000000"
 preserveAspectRatio="xMidYMid meet">

<g transform="translate(0.000000,500.000000) scale(0.100000,-0.100000)"
fill="#000000" stroke="none">
<path d="M4090 3723 c-25 -1 -133 -7 -240 -13 -1284 -71 -2413 -353 -2918
-730 -259 -193 -359 -405 -289 -611 34 -98 83 -172 175 -260 184 -178 468
-326 887 -465 753 -248 1768 -383 2895 -383 1377 0 2615 209 3345 564 316 154
501 308 587 491 31 65 33 75 33 180 0 110 0 111 -44 199 -163 328 -744 618
-1631 814 -482 106 -1026 173 -1705 211 -146 8 -988 10 -1095 3z m1020 -228
c36 -3 153 -12 260 -21 433 -33 967 -113 1255 -186 68 -18 124 -22 380 -27
293 -6 301 -7 349 -31 83 -41 106 -97 84 -197 -7 -31 -6 -33 70 -79 158 -96
262 -194 322 -305 32 -59 35 -71 35 -149 0 -77 -3 -92 -34 -155 -186 -377
-1050 -691 -2246 -815 -380 -39 -1111 -58 -1410 -37 -290 20 -393 29 -560 48
-497 55 -1017 155 -1395 269 -89 26 -109 29 -305 32 -186 4 -215 7 -257 25
-71 32 -85 79 -48 160 l19 43 -57 44 c-93 71 -179 168 -212 238 -26 54 -30 75
-30 143 0 71 4 89 34 152 77 159 302 329 589 443 39 15 62 31 72 49 37 72 158
117 366 136 82 7 152 16 157 18 13 9 284 64 447 91 350 59 784 101 1250 120
107 5 783 -3 865 -9z"/>
<path d="M2305 3101 c-65 -8 -91 -19 -116 -48 -14 -16 -77 -178 -308 -802 -63
-170 -74 -228 -44 -252 12 -11 74 -15 277 -17 255 -3 262 -2 306 20 50 26 73
63 132 218 41 106 71 130 160 130 69 0 98 -12 98 -42 0 -12 -16 -70 -36 -128
-64 -186 -55 -194 251 -198 243 -4 307 4 355 45 42 35 48 48 167 367 187 499
223 599 223 622 0 13 -10 35 -22 49 -34 38 -122 48 -358 43 -203 -5 -246 -14
-282 -54 -9 -11 -42 -86 -73 -169 -30 -82 -65 -159 -76 -170 -17 -17 -33 -20
-112 -20 l-92 0 -3 30 c-1 17 16 80 43 149 53 141 57 187 18 213 -24 16 -55
18 -238 20 -115 0 -237 -2 -270 -6z"/>
<path d="M4981 3100 c-57 -12 -83 -30 -104 -71 -9 -19 -79 -200 -154 -404 -86
-233 -145 -378 -160 -392 -19 -20 -32 -23 -106 -23 -113 0 -117 5 -83 107 31
94 32 105 5 129 -19 17 -42 19 -258 22 -130 2 -261 0 -291 -3 -82 -10 -102
-37 -179 -243 -62 -166 -64 -172 -46 -191 40 -45 51 -46 796 -46 l706 0 37 28
c20 16 48 45 61 65 13 20 94 226 179 457 86 231 161 430 166 443 19 45 12 90
-17 109 -24 16 -56 18 -268 20 -132 1 -260 -2 -284 -7z"/>
<path d="M5849 3090 c-102 -18 -136 -52 -189 -191 -315 -839 -321 -859 -285
-899 18 -20 34 -20 739 -20 693 0 722 1 752 19 36 22 65 78 113 220 36 104 35
136 -5 151 -14 6 -139 10 -277 10 -300 0 -304 -1 -352 -95 -22 -43 -40 -65
-65 -77 -38 -20 -114 -24 -154 -8 -55 21 -54 28 61 335 67 178 116 295 130
310 26 25 63 35 135 35 83 0 104 -26 78 -94 -12 -33 -5 -50 26 -65 32 -14 494
-15 545 -1 51 14 71 41 122 161 55 129 63 167 43 194 -14 20 -27 20 -693 21
-373 1 -699 -2 -724 -6z"/>
<path d="M5717 1799 c-43 -17 -33 -50 18 -65 22 -6 40 -15 39 -20 -1 -14 -35
-17 -47 -5 -16 16 -57 14 -57 -3 0 -19 22 -26 84 -26 39 0 57 5 70 19 15 17
16 20 1 34 -9 9 -31 19 -50 23 -19 3 -35 10 -35 15 0 12 37 11 61 -2 12 -6 28
-8 37 -4 14 5 14 7 0 21 -20 20 -85 27 -121 13z"/>
<path d="M3137 1747 c-22 -68 -22 -67 8 -67 18 0 26 7 31 25 5 21 12 25 41 25
33 0 35 -2 29 -26 -6 -23 -4 -25 20 -22 21 2 30 11 39 38 29 83 29 80 0 80
-18 0 -29 -6 -32 -20 -4 -15 -14 -20 -40 -20 -30 0 -35 3 -30 20 4 16 0 20
-22 20 -24 0 -29 -6 -44 -53z"/>
<path d="M3585 1788 c-3 -7 -11 -35 -19 -61 l-14 -48 81 3 c53 2 82 7 85 16 2
8 -11 12 -47 12 -67 0 -66 18 2 22 65 4 68 22 4 26 -65 4 -50 22 19 22 30 0
54 5 54 10 0 15 -160 13 -165 -2z"/>
<path d="M4005 1788 c-15 -42 -35 -101 -35 -104 0 -2 34 -4 75 -4 60 0 75 3
75 15 0 11 -12 15 -45 15 l-44 0 14 41 c8 23 15 43 15 45 0 10 -51 2 -55 -8z"/>
<path d="M4395 1788 c-15 -41 -35 -101 -35 -104 0 -2 11 -4 24 -4 20 0 27 8
39 43 l14 42 7 -42 c10 -57 39 -58 80 -3 35 47 43 46 22 -5 l-16 -36 26 3 c21
2 30 13 45 53 10 28 19 53 19 58 0 4 -17 7 -37 7 -33 0 -42 -6 -68 -43 l-30
-42 -5 40 c-5 38 -7 40 -43 43 -24 2 -39 -1 -42 -10z"/>
<path d="M4865 1748 c-8 -28 -15 -55 -15 -60 0 -4 36 -8 80 -8 64 0 80 3 80
15 0 11 -12 15 -50 15 -66 0 -65 18 2 22 71 4 78 28 8 28 -31 0 -49 4 -45 10
3 6 31 10 61 10 30 0 54 5 54 10 0 6 -33 10 -80 10 l-79 0 -16 -52z"/>
<path d="M5280 1790 c0 -5 12 -10 26 -10 23 0 25 -3 20 -25 -3 -14 -9 -36 -12
-50 -5 -22 -3 -25 19 -25 22 0 28 8 42 50 15 45 20 50 46 50 16 0 29 5 29 10
0 6 -35 10 -85 10 -50 0 -85 -4 -85 -10z"/>
</g>
</svg>
